<?xml version="1.0" encoding="UTF-8"?>
<svg width="52px" height="52px" viewBox="0 0 52 52" version="1.1" xmlns="http://www.w3.org/2000/svg" xmlns:xlink="http://www.w3.org/1999/xlink">
    <!-- Generator: Sketch 55.1 (78136) - https://sketchapp.com -->
    <title>Right</title>
    <desc>Created with Sketch.</desc>
    <defs>
        <path d="M39,25.9881622 C39,26.553784 38.7842324,27.0816977 38.3953488,27.4738621 L30.5173212,35.3674287 C29.8976165,35.9883558 29.0169835,36.1668409 28.221654,35.8375233 C27.4313423,35.5082057 26.9195214,34.7314184 26.9195214,33.8591039 L26.9195214,30.9958006 L15.9680594,29.4296566 C14.4802663,29.241116 13.270964,28.0419978 13.0275982,26.4884232 C13.0100357,26.3401046 13,26.1892721 13,26.0409535 C13,24.3189493 14.2770433,22.8558742 15.9555148,22.6371671 L26.9195214,21.1112452 L26.9195214,18.1172204 C26.9195214,17.2549614 27.4012352,16.5108545 28.1815111,16.1739952 C28.9617871,15.8346222 29.8700183,15.998024 30.5173212,16.6088956 L38.3953488,24.5024622 C38.7842324,24.8946266 39,25.4225403 39,25.9881622 Z" id="path-1"></path>
    </defs>
    <g id="Sketches" stroke="none" stroke-width="1" fill="none" fill-rule="evenodd">
        <g transform="translate(-763.000000, -644.000000)" id="Portrait---Project-page---Touch-Keys-on">
            <g transform="translate(575.000000, 130.000000)">
                <g id="Scratch" transform="translate(10.000000, 51.000000)">
                    <g id="Stage" transform="translate(0.000000, 128.000000)">
                        <g id="Controls" transform="translate(0.000000, 277.000000)">
                            <g id="Directional-Pad" transform="translate(89.000000, 14.000000)">
                                <g id="Right" transform="translate(89.000000, 44.000000)">
                                    <circle id="Oval" fill="#4D97FF" cx="26" cy="26" r="26"></circle>
                                    <mask id="mask-2" fill="white">
                                        <use xlink:href="#path-1"></use>
                                    </mask>
                                    <use id="Fill-1" fill="#FFFFFF" xlink:href="#path-1"></use>
                                </g>
                            </g>
                        </g>
                    </g>
                </g>
            </g>
        </g>
    </g>
</svg>